<?xml version="1.0" encoding="utf-8"?>
<!-- Generator: Adobe Illustrator 16.0.0, SVG Export Plug-In . SVG Version: 6.00 Build 0)  -->
<!DOCTYPE svg PUBLIC "-//W3C//DTD SVG 1.1//EN" "http://www.w3.org/Graphics/SVG/1.1/DTD/svg11.dtd">
<svg version="1.1" id="Layer_1" xmlns="http://www.w3.org/2000/svg" xmlns:xlink="http://www.w3.org/1999/xlink" x="0px" y="0px"
	 width="438.565px" height="438.346px" viewBox="0 0 438.565 438.346" enable-background="new 0 0 438.565 438.346"
	 xml:space="preserve">
<g>
	<path fill-rule="evenodd" clip-rule="evenodd" d="M8.733,67.855c1.369,1.293,2.679,2.472,3.924,3.717
		c17.562,17.554,35.1,35.13,52.674,52.672c11.688,11.666,24.667,11.645,36.329-0.004c7.31-7.301,14.623-14.601,21.913-21.922
		c11.075-11.121,11.048-24.463-0.139-35.646c-18.032-18.025-36.11-36.005-54.161-54.011c-1.279-1.275-2.503-2.607-4.172-4.352
		c9.347-4.323,18.822-6.399,28.509-7.473c65.569-7.263,121.132,49.764,112.02,115.028c-0.57,4.083,0.495,6.727,3.376,9.599
		c69.865,69.652,139.651,139.384,209.405,209.147c23.447,23.45,25.286,58.326,4.522,82.754
		c-22.553,26.533-63.22,28.161-88.014,3.388c-70.851-70.789-141.661-141.617-212.415-212.502c-2.892-2.898-5.548-4.165-9.898-3.851
		C52.572,208.733,3.549,163.992,2.02,103.736C1.72,91.943,4.639,76.04,8.733,67.855z M347.915,380.338
		c0.028,17.193,13.967,31.156,31.17,31.224c17.042,0.066,31.258-14.036,31.364-31.114c0.108-17.359-14.148-31.602-31.462-31.432
		C361.742,349.186,347.888,363.151,347.915,380.338z"/>
	<path fill-rule="evenodd" clip-rule="evenodd" d="M285.653,172.077c-6.562-6.651-12.375-12.546-19.562-19.83
		c1.516-0.916,3.527-1.659,4.907-3.035c36.466-36.356,72.866-72.779,109.278-109.189c5.986-5.986,6.874-9.847,3.088-13.47
		c-3.661-3.503-7.437-2.618-13.144,3.089c-36.53,36.528-73.058,73.059-109.591,109.583c-1.277,1.276-2.609,2.497-3.932,3.76
		c-5.426-5.497-10.644-10.782-16.171-16.382c0.79-0.854,1.851-2.079,2.993-3.222c35.934-35.947,71.828-71.932,107.83-107.81
		c25.005-24.918,65.385-19.112,81.336,11.568c9.75,18.753,7.426,42.1-7.392,57.188c-37.244,37.928-75.054,75.299-112.646,112.886
		c-0.225,0.224-0.563,0.334-0.68,0.399c-5.153-5.393-10.28-10.757-16.865-17.646c0.371-0.176,2.435-0.583,3.674-1.818
		c36.951-36.813,73.822-73.706,110.698-110.595c1.175-1.176,3.054-2.324,3.238-3.673c0.368-2.704,0.611-5.984-0.599-8.207
		c-1.604-2.942-5.063-3.852-8.307-2.01c-1.84,1.044-3.436,2.603-4.952,4.118c-36.526,36.531-73.032,73.082-109.511,109.66
		C287.953,168.839,286.865,170.54,285.653,172.077z"/>
	<path fill-rule="evenodd" clip-rule="evenodd" d="M20.313,438.143C13.547,431.523,6.915,425.034,0,418.27
		c7.316-11.128,14.605-22.229,21.908-33.32c9.611-14.599,19.132-29.26,28.962-43.71c1.393-2.048,4.202-4.151,6.535-4.377
		c17.719-1.717,31.475-9.499,43.348-23.062c14.012-16.004,29.898-30.367,44.979-45.435c1.157-1.156,2.374-2.254,3.256-3.089
		c8.138,8.127,16.099,16.076,24.439,24.404c-4.09,3.987-8.519,8.224-12.857,12.551c-16.859,16.821-33.735,33.627-50.464,50.578
		c-1.744,1.769-3.077,4.33-3.69,6.754c-1.876,7.414-3.165,14.977-5.012,22.399c-0.464,1.865-1.783,3.995-3.351,5.039
		c-25.22,16.791-50.542,33.427-75.848,50.088C21.522,437.542,20.771,437.891,20.313,438.143z"/>
	
</g>
</svg>
