<?xml version="1.0" encoding="utf-8"?>
<!-- Generator: Adobe Illustrator 16.0.0, SVG Export Plug-In . SVG Version: 6.00 Build 0)  -->
<!DOCTYPE svg PUBLIC "-//W3C//DTD SVG 1.1//EN" "http://www.w3.org/Graphics/SVG/1.1/DTD/svg11.dtd">
<svg version="1.1" id="Layer_1" xmlns="http://www.w3.org/2000/svg" xmlns:xlink="http://www.w3.org/1999/xlink" x="0px" y="0px"
	 width="538.813px" height="509.961px" viewBox="0 0 538.813 509.961" enable-background="new 0 0 538.813 509.961"
	 xml:space="preserve">
<g>
	<path fill-rule="evenodd" clip-rule="evenodd" d="M0,97.807c0.199-0.635,0.43-1.261,0.592-1.905
		c2.438-9.693,10.72-16.298,20.701-16.493c1.047-0.021,2.096-0.016,3.143-0.016c100.947,0,201.895,0,302.841,0
		c1.017,0,2.033,0,3.466,0c-0.6,0.974-0.94,1.599-1.348,2.177c-6.588,9.361-13.22,18.692-19.744,28.099
		c-1.059,1.525-2.163,2.083-4.022,2.083c-89.947-0.048-179.895-0.042-269.841-0.042c-1.037,0-2.073,0-3.282,0
		c0,86.195,0,172.212,0,258.431c157.844,0,315.754,0,473.826,0c0-86.006,0-172.022,0-258.33c-28.423,0-56.872,0-85.79,0
		c0.613-0.855,0.889-1.339,1.255-1.738c8.907-9.7,17.842-19.376,26.717-29.106c1.049-1.149,2.113-1.609,3.673-1.605
		c21.177,0.048,42.354,0.025,63.531,0.036c12.031,0.006,19.719,5.972,22.738,17.594c0.073,0.284,0.236,0.545,0.357,0.816
		c0,106.266,0,212.531,0,318.798c-0.199,0.635-0.429,1.261-0.593,1.904c-2.509,9.864-10.948,16.484-21.155,16.484
		c-165.108,0.008-330.216,0.008-495.323,0c-10.294-0.001-18.745-6.709-21.2-16.713c-0.14-0.568-0.36-1.118-0.542-1.676
		C0,310.338,0,204.073,0,97.807z"/>
	<path fill-rule="evenodd" clip-rule="evenodd" d="M459.812,30.123c-0.204,12.252-4.459,23.064-12.67,32.022
		C392.8,121.427,338.313,180.578,283.946,239.837c-7.983,8.703-15.638,17.71-23.336,26.67c-5.091,5.926-6.396,6.13-12.391,1.248
		c-4.408-3.591-8.883-7.098-13.268-10.715c-4.177-3.445-4.441-5.146-1.276-9.432c55.331-74.92,107.399-152.152,161.644-227.841
		c8.524-11.896,20.363-19.262,35.394-19.75c16.228-0.526,28.081,10.749,29.091,26.966C459.868,28.026,459.812,29.076,459.812,30.123
		z M410.037,31.658c4.741-10.545,13.662-16.847,23.104-23.073c-13.41-1.708-28.519,5.351-32.479,14.909
		C403.732,26.167,406.814,28.851,410.037,31.658z"/>
	<path fill-rule="evenodd" clip-rule="evenodd" d="M136.918,317.879c1.813-0.183,3.625-0.382,5.441-0.545
		c6.244-0.562,12.543-0.766,18.718-1.753c7.54-1.206,13.317-5.528,16.645-12.384c2.927-6.031,5.166-12.398,7.682-18.628
		c0.418-1.037,0.696-2.131,1.05-3.195c4.751-14.281,15.715-21.164,30.518-18.703c11.993,1.993,21.779,8.008,29.328,17.565
		c0.968,1.226,1.805,2.577,2.552,3.951c5.257,9.666,3.135,18.665-5.969,24.847c-6.725,4.567-14.415,6.905-22.174,8.876
		c-25.362,6.442-50.983,7.279-76.78,3.075c-2.429-0.396-4.78-1.271-7.167-1.925C136.814,318.667,136.866,318.272,136.918,317.879z"
		/>
	<path fill-rule="evenodd" clip-rule="evenodd" d="M325.207,456.734c0.689,4.316,1.39,8.658,2.074,13.002
		c0.5,3.176,0.918,6.367,1.479,9.532c1.167,6.594,4.321,12.051,9.554,16.269c3.435,2.768,6.949,5.441,10.288,8.319
		c1.348,1.163,3.468,2.687,2.356,4.544c-0.656,1.098-3.107,1.558-4.754,1.562c-24.536,0.068-49.073-0.04-73.609-0.001
		c-23.789,0.039-47.579,0.213-71.368,0.288c-3.439,0.011-6.889-0.085-10.313-0.376c-1.133-0.096-2.82-0.725-3.127-1.536
		c-0.313-0.827,0.471-2.485,1.278-3.246c2.768-2.608,5.578-5.243,8.697-7.396c7.655-5.281,11.766-12.455,12.835-21.636
		c0.692-5.938,1.831-11.823,2.7-17.742c0.184-1.253,0.594-1.779,1.961-1.777c36.285,0.035,72.57,0.03,108.855,0.038
		C324.406,456.578,324.697,456.658,325.207,456.734z"/>
</g>
</svg>
