<?xml version="1.0" encoding="utf-8"?>
<!-- Generator: Adobe Illustrator 16.0.0, SVG Export Plug-In . SVG Version: 6.00 Build 0)  -->
<!DOCTYPE svg PUBLIC "-//W3C//DTD SVG 1.1//EN" "http://www.w3.org/Graphics/SVG/1.1/DTD/svg11.dtd">
<svg version="1.1" id="Layer_1" xmlns="http://www.w3.org/2000/svg" xmlns:xlink="http://www.w3.org/1999/xlink" x="0px" y="0px"
	 width="256px" height="265px" viewBox="0 0 256 265" enable-background="new 0 0 256 265" xml:space="preserve">
<g>
	<path fill-rule="evenodd" clip-rule="evenodd" d="M222,265c-42.334,0-84.666,0-127,0c-10.688-4.44-14.513-12.721-13.673-23.855
		c0.346-4.578,0.058-9.204,0.058-14.283c-6.921,0-13.211,0.058-19.5-0.01c-27.837-0.298-50.651-16.897-58.565-42.807
		C1.824,179.148,1.087,174.021,0,169c0-6,0-12,0-18c0.688-4.08,1.275-8.181,2.083-12.236c3.469-17.436,10.686-32.613,26.728-41.935
		c16.103-9.357,32.361-18.454,48.686-27.418c3.149-1.729,3.991-3.766,3.951-7.1c-0.154-12.819,0.33-25.656-0.181-38.456
		C80.821,12.712,84.313,4.439,95,0c42.334,0,84.666,0,127,0c10.691,4.412,14.042,12.659,13.752,23.8
		c-0.494,18.941-0.137,37.904-0.137,56.857c0,1.771,0,3.54,0,5.776C245.193,85.521,252.314,88.198,256,97c0,3,0,6,0,9
		c-3.828,8.086-10.285,10.869-19.029,10.303c-7.8-0.506-15.658-0.053-23.491-0.123c-9.733-0.086-15.507-5.373-15.706-14.244
		c-0.209-9.317,5.313-15.054,15.07-15.51c3.264-0.153,6.541-0.024,9.949-0.024c0-19.651,0-38.57,0-57.769
		c-42.986,0-85.715,0-128.56,0c0,10.391,0,20.448,0,31.037c2.175-1.109,3.926-1.978,5.653-2.888
		c8.828-4.65,17.49-9.652,26.524-13.859c7.059-3.287,13.637-1.688,17.261,3.047c3.689,4.821,3.646,13.078-0.823,18.61
		c-3.319,4.108-7.121,7.992-11.299,11.211c-11.075,8.534-22.384,16.777-33.803,24.85c-2.762,1.952-3.882,3.836-3.872,7.229
		c0.119,39.664,0.074,79.328,0.088,118.992c0,1.595,0.164,3.189,0.253,4.827c43.083,0,85.683,0,128.558,0c0-3.132,0-6.026,0-9.463
		c-3.205,0-6.172,0.096-9.128-0.032c-2.144-0.092-4.383-0.147-6.394-0.797c-6.717-2.17-10.115-8.284-9.348-16.295
		c0.619-6.47,5.184-11.805,11.793-12.246c9.127-0.607,18.324-0.088,27.466-0.549c8.739-0.44,15.243,2.392,18.837,10.692c0,3,0,6,0,9
		c-3.934,8.507-11.018,11.246-20.385,10.186c0,6.758-0.346,12.9,0.076,18.991C236.463,252.321,232.703,260.585,222,265z
		 M167.246,247.041c-0.039-4.895-4.167-8.97-8.945-8.831c-4.592,0.132-8.462,4.101-8.542,8.757
		c-0.085,4.956,3.808,8.984,8.704,9.006C163.35,255.994,167.285,251.991,167.246,247.041z M158.263,17.161
		c5.655,0,11.313,0.122,16.961-0.09c1.334-0.05,2.626-1.223,3.938-1.879c-1.231-0.746-2.452-2.121-3.693-2.14
		c-11.308-0.167-22.618-0.167-33.926,0.001c-1.241,0.019-2.462,1.398-3.692,2.147c1.316,0.653,2.611,1.817,3.951,1.87
		C147.281,17.286,152.774,17.161,158.263,17.161z"/>
	<path fill-rule="evenodd" clip-rule="evenodd" d="M256,176c-3.197,8.213-9.262,11.449-17.953,11.065
		c-8.299-0.366-16.627-0.015-24.94-0.099c-9.366-0.094-15.246-5.779-15.347-14.667c-0.105-9.182,5.777-15.111,15.308-15.227
		c8.313-0.101,16.642,0.27,24.94-0.104c8.69-0.392,14.752,2.854,17.992,11.03C256,170.667,256,173.333,256,176z"/>
	<path fill-rule="evenodd" clip-rule="evenodd" d="M256,141c-3.543,8.31-10.028,11.176-18.752,10.78
		c-8.143-0.369-16.32,0.109-24.471-0.143c-10.66-0.329-16.66-8.044-14.751-18.532c1.153-6.337,6.566-11.053,13.466-11.18
		c10.152-0.186,20.311-0.049,30.467-0.058c7.125-0.005,10.912,4.604,14.041,10.132C256,135,256,138,256,141z"/>
	
</g>
</svg>
