<?xml version="1.0" encoding="utf-8"?>
<!-- Generator: Adobe Illustrator 16.0.0, SVG Export Plug-In . SVG Version: 6.00 Build 0)  -->
<!DOCTYPE svg PUBLIC "-//W3C//DTD SVG 1.1//EN" "http://www.w3.org/Graphics/SVG/1.1/DTD/svg11.dtd">
<svg version="1.1" id="Layer_1" xmlns="http://www.w3.org/2000/svg" xmlns:xlink="http://www.w3.org/1999/xlink" x="0px" y="0px"
	 width="595.099px" height="580.373px" viewBox="0 0 595.099 580.373" enable-background="new 0 0 595.099 580.373"
	 xml:space="preserve">
<g>
	<path fill-rule="evenodd" clip-rule="evenodd" d="M595.099,571.425c-3.452,6.906-9.144,9.145-16.662,8.934
		c-12.621-0.352-25.259-0.098-37.889-0.102c-1.263,0-2.529,0.039-3.788-0.041c-7.683-0.479-12.809-5.359-12.653-12.012
		c0.155-6.662,5.326-11.617,12.895-11.777c9.943-0.211,19.895-0.195,29.837,0.014c3.507,0.074,4.799-0.947,4.614-4.529
		c-0.258-5.039-0.063-10.102-0.063-15.152c0-168.459,0.001-336.917,0.001-505.374c0-2.328,0-4.655,0-7.417
		c-2.231-0.106-3.906-0.252-5.582-0.255c-12.473-0.019-24.945,0.055-37.417-0.064c-2.642-0.025-5.408-0.341-7.885-1.197
		c-4.791-1.657-7.693-6.637-7.274-11.581c0.422-4.982,3.965-9.313,8.895-10.455c2.126-0.492,4.381-0.58,6.579-0.587
		c16.734-0.049,33.472,0.14,50.204-0.117c7.338-0.113,12.87,2.185,16.188,8.934C595.099,196.239,595.099,383.832,595.099,571.425z"
		/>
	<path fill-rule="evenodd" clip-rule="evenodd" d="M2.001,8.646c3.324-6.761,8.852-9.087,16.214-8.925
		c13.414,0.296,26.841-0.073,40.257,0.151c11.073,0.185,16.907,9.639,11.53,18.324c-2.712,4.382-7.129,5.453-11.88,5.486
		c-8.999,0.063-18.009,0.278-26.994-0.084c-4.494-0.181-5.507,1.351-5.5,5.595c0.118,66.312,0.081,132.623,0.08,198.934
		c0,107.204-0.001,214.407-0.001,321.61c0,6.631,0.003,6.629,6.648,6.629c8.368,0.002,16.736-0.045,25.104,0.023
		c5.163,0.043,9.784,1.525,12.309,6.441c3.822,7.443-0.631,15.826-8.958,17.104c-1.706,0.262-3.458,0.303-5.188,0.309
		c-12.315,0.027-24.636-0.215-36.942,0.111c-7.489,0.199-13.268-1.93-16.679-8.928C2.001,383.832,2.001,196.239,2.001,8.646z"/>
	<path fill-rule="evenodd" clip-rule="evenodd" d="M298.615,457.751c-51.635,0-103.269,0.002-154.903,0
		c-11.946,0-15.795-3.887-15.796-16.01c-0.008-96.951-0.01-193.904-0.008-290.857c0-11.848,4.119-15.999,15.921-16.001
		c103.269-0.012,206.538-0.016,309.805-0.01c11.222,0.001,15.562,4.308,15.563,15.418c0.005,97.426,0.002,194.852-0.012,292.278
		c-0.002,10.998-4.188,15.172-15.193,15.174C402.198,457.757,350.406,457.75,298.615,457.751z M151.757,158.927
		c0,2.088,0,3.645,0,5.201c0,88.102,0.031,176.204-0.091,264.305c-0.006,4.455,1.051,5.891,5.73,5.883
		c94.101-0.137,188.202-0.135,282.303-0.004c4.623,0.008,5.775-1.334,5.769-5.844c-0.125-88.102-0.089-176.204-0.1-264.305
		c0-1.667-0.17-3.332-0.272-5.236C347.26,158.927,249.913,158.927,151.757,158.927z"/>
	<path fill-rule="evenodd" clip-rule="evenodd" d="M131.78,53.356c111.391,0,222.128,0,333.53,0c0-3.785-0.001-7.363,0-10.94
		c0.001-9.628-0.059-19.257,0.022-28.884c0.065-7.836,4.882-13.35,11.612-13.524c7.083-0.184,12.018,5.139,12.071,13.459
		c0.107,16.73,0.124,33.461,0.005,50.191c-0.063,9.005-4.393,13.265-13.357,13.59c-2.837,0.103-5.682,0.025-8.522,0.025
		c-113.64,0-227.279-0.001-340.919-0.002c-1.578,0-3.158,0.039-4.734-0.019c-8.975-0.328-13.283-4.559-13.413-13.55
		c-0.142-9.783-0.035-19.57-0.034-29.356c0-6.787-0.062-13.575,0.023-20.36c0.11-8.754,4.806-14.129,12.063-13.983
		c6.898,0.139,11.609,5.716,11.642,13.968C131.817,26.89,131.78,39.81,131.78,53.356z"/>
	<path fill-rule="evenodd" clip-rule="evenodd" d="M131.787,539.546c0,9.348,0.42,18.357-0.207,27.293
		c-0.251,3.582-2.12,7.594-4.489,10.342c-2.96,3.434-7.481,3.689-11.828,1.838c-4.575-1.949-6.965-5.672-7.039-10.365
		c-0.22-13.883-0.309-27.779,0.035-41.66c0.17-6.846,4.701-10.84,11.564-11.445c1.725-0.152,3.469-0.119,5.204-0.119
		c115.856,0,231.711,0,347.568,0.008c12.577,0,16.493,3.883,16.498,16.316c0.003,11.523,0.353,23.063-0.208,34.559
		c-0.183,3.73-2.015,7.969-4.431,10.854c-2.877,3.436-7.518,3.832-11.81,1.85c-4.734-2.188-7.2-6.074-7.286-11.254
		c-0.126-7.574-0.043-15.152-0.049-22.729c-0.001-1.715,0-3.43,0-5.486C354.131,539.546,243.271,539.546,131.787,539.546z"/>
	<path fill-rule="evenodd" clip-rule="evenodd" d="M72.821,127.992c-5.05,0-10.104,0.139-15.148-0.032
		c-7.522-0.255-12.286-4.575-12.518-12.06c-0.333-10.72-0.308-21.462-0.029-32.184c0.183-7.003,4.104-11.505,11.054-11.839
		c11.17-0.536,22.398-0.556,33.57-0.068c7.177,0.313,11.286,5.136,11.472,12.529c0.257,10.25,0.266,20.518,0.001,30.769
		c-0.211,8.187-4.986,12.638-13.254,12.876c-5.046,0.146-10.099,0.027-15.148,0.027C72.821,128.004,72.821,127.998,72.821,127.992z"
		/>
	<path fill-rule="evenodd" clip-rule="evenodd" d="M45.024,186.275c0-5.047-0.167-10.101,0.039-15.14
		c0.329-8.097,4.282-12.329,12.35-12.568c10.401-0.308,20.824-0.291,31.226-0.012c8.002,0.213,12.302,4.405,12.555,12.387
		c0.329,10.4,0.325,20.825,0.001,31.226c-0.248,7.964-4.773,12.287-13.055,12.546c-9.927,0.311-19.881,0.342-29.806,0.002
		c-9.169-0.313-13.2-4.908-13.326-14.245c-0.064-4.73-0.012-9.463-0.012-14.196C45.005,186.275,45.015,186.275,45.024,186.275z"/>
	<path fill-rule="evenodd" clip-rule="evenodd" d="M45.013,363.964c0-5.049-0.164-10.102,0.037-15.143
		c0.333-8.375,4.248-12.527,12.622-12.762c10.402-0.289,20.827-0.285,31.229,0.021c7.619,0.225,12.017,4.518,12.27,12.141
		c0.35,10.557,0.35,21.143,0.004,31.701c-0.251,7.689-4.959,12.066-12.839,12.256c-10.09,0.244-20.196,0.252-30.286-0.008
		c-8.567-0.219-12.822-4.826-13.039-13.535c-0.121-4.889-0.021-9.781-0.021-14.672C44.998,363.964,45.005,363.964,45.013,363.964z"
		/>
	<path fill-rule="evenodd" clip-rule="evenodd" d="M73.064,247.19c5.047,0.003,10.098-0.133,15.14,0.034
		c8.389,0.277,12.849,4.571,13.04,12.964c0.229,10.089,0.235,20.192-0.014,30.28c-0.208,8.395-4.665,12.707-13.118,12.861
		c-10.091,0.184-20.191,0.193-30.281-0.016c-8.1-0.168-12.58-4.603-12.761-12.695c-0.23-10.246-0.25-20.506-0.012-30.752
		c0.186-8.021,4.371-12.07,12.396-12.606c2.669-0.178,5.359-0.062,8.04-0.07C68.018,247.182,70.541,247.188,73.064,247.19z"/>
	<path fill-rule="evenodd" clip-rule="evenodd" d="M72.811,480.89c-5.049-0.002-10.105,0.164-15.145-0.041
		c-7.935-0.324-12.365-4.537-12.572-12.438c-0.273-10.406-0.292-20.83-0.014-31.236c0.215-8.092,4.81-12.379,12.991-12.508
		c9.938-0.156,19.881-0.143,29.819-0.004c8.445,0.119,13.174,4.693,13.362,13.152c0.22,9.936,0.204,19.883-0.002,29.82
		c-0.179,8.619-4.657,12.961-13.293,13.229C82.913,481.019,77.859,480.892,72.811,480.89z"/>
	<path fill-rule="evenodd" clip-rule="evenodd" d="M493.733,362.789c-0.001-4.887-0.119-9.775,0.026-14.658
		c0.25-8.408,4.1-12.785,12.362-13.068c10.547-0.361,21.125-0.344,31.673,0.002c7.682,0.25,11.836,4.619,12.034,12.393
		c0.265,10.396,0.263,20.809-0.003,31.205c-0.203,7.928-4.492,12.188-12.523,12.404c-10.237,0.279-20.495,0.311-30.731,0.002
		c-8.515-0.254-12.577-4.66-12.811-13.148C493.622,372.88,493.735,367.833,493.733,362.789z"/>
	<path fill-rule="evenodd" clip-rule="evenodd" d="M521.568,71.014c5.985,0,11.985-0.265,17.95,0.08
		c5.249,0.302,9.472,3.598,9.685,8.669c0.527,12.567,0.624,25.186,0.073,37.748c-0.255,5.805-4.986,9.152-11.825,9.348
		c-10.555,0.303-21.134,0.353-31.684-0.02c-7.404-0.262-11.711-4.716-11.919-12.086c-0.299-10.555-0.287-21.128-0.024-31.686
		c0.191-7.692,4.496-11.878,12.139-12.233c5.191-0.242,10.402-0.046,15.604-0.046C521.568,70.863,521.568,70.938,521.568,71.014z"/>
	<path fill-rule="evenodd" clip-rule="evenodd" d="M521.852,246.356c5.2,0.005,10.406-0.129,15.602,0.037
		c7.608,0.244,11.95,3.996,12.234,11.554c0.408,10.856,0.407,21.747,0.023,32.603c-0.267,7.545-4.557,11.529-12.124,11.711
		c-10.553,0.252-21.121,0.271-31.673-0.015c-7.736-0.209-11.903-4.458-12.102-12.268c-0.263-10.394-0.255-20.805-0.009-31.2
		c0.195-8.2,4.582-12.165,12.919-12.423c0.315-0.009,0.631-0.004,0.946-0.004C512.396,246.351,517.124,246.352,521.852,246.356z"/>
	<path fill-rule="evenodd" clip-rule="evenodd" d="M493.746,185.491c-0.006-5.042-0.14-10.09,0.024-15.127
		c0.263-8,4.317-12.551,12.164-12.792c10.705-0.33,21.437-0.323,32.141,0.038c7.384,0.249,11.396,4.253,11.649,11.69
		c0.37,10.859,0.383,21.75,0.018,32.609c-0.243,7.232-4.507,11.361-11.789,11.578c-10.706,0.319-21.437,0.33-32.14-0.02
		c-7.779-0.255-11.688-4.536-12.021-12.375C493.572,195.9,493.751,190.692,493.746,185.491z"/>
	<path fill-rule="evenodd" clip-rule="evenodd" d="M521.868,479.673c-5.358,0-10.722,0.145-16.074-0.035
		c-7.297-0.246-11.635-4.082-11.881-11.393c-0.371-11.018-0.362-22.066,0.014-33.084c0.238-6.941,4.064-10.924,11.039-11.193
		c11.325-0.434,22.692-0.4,34.019,0.035c6.439,0.246,10.328,4.117,10.567,10.566c0.426,11.48,0.443,23-0.02,34.477
		c-0.275,6.793-4.643,10.219-11.588,10.617c-0.314,0.02-0.63,0.029-0.945,0.029c-5.044,0-10.088,0-15.131,0
		C521.868,479.687,521.868,479.679,521.868,479.673z"/>
	
</g>
</svg>
