<?xml version="1.0" encoding="utf-8"?>
<!-- Generator: Adobe Illustrator 16.0.0, SVG Export Plug-In . SVG Version: 6.00 Build 0)  -->
<!DOCTYPE svg PUBLIC "-//W3C//DTD SVG 1.1//EN" "http://www.w3.org/Graphics/SVG/1.1/DTD/svg11.dtd">
<svg version="1.1" id="Layer_1" xmlns="http://www.w3.org/2000/svg" xmlns:xlink="http://www.w3.org/1999/xlink" x="0px" y="0px"
	 width="256px" height="253.901px" viewBox="0 0 256 253.901" enable-background="new 0 0 256 253.901" xml:space="preserve">
<g>
	<path fill-rule="evenodd" clip-rule="evenodd" d="M256,192c-0.773,2.179-1.383,4.433-2.348,6.522
		c-5.514,11.943-15.021,17.972-28.057,18.103c-17.988,0.18-35.981-0.012-53.971,0.108c-3.174,0.021-4.523-0.816-4.361-4.199
		c0.236-4.957,0.061-9.933,0.061-15.577c2.196,0,3.957,0.001,5.719,0c17.324,0,34.648,0.046,51.973-0.024
		c7.407-0.029,11.166-3.677,11.178-11.02c0.061-37.98,0.029-75.961,0.018-113.942c0-0.805-0.136-1.609-0.234-2.705
		c-72.018,0-143.867,0-216.205,0c0,1.868,0,3.491,0,5.114c0,36.48-0.008,72.962,0.005,109.443
		c0.003,10.06,3.082,13.123,13.116,13.131c13.326,0.012,26.653,0.003,39.979,0.003c1.797,0,3.594,0,5.674,0
		c0,6.566,0,12.664,0,19.412c-1.676,0.1-3.42,0.291-5.165,0.295c-12.327,0.026-24.654,0.014-36.981,0.014
		C14.916,216.677,7.752,211.82,0,192C0,136,0,80,0,24c1.455-3.293,2.646-6.736,4.418-9.85C8.763,6.517,16.011,2.699,24,0
		c69.333,0,138.666,0,208,0c2.856,1.215,5.801,2.26,8.554,3.677C248.906,7.975,253.154,15.474,256,24C256,80,256,136,256,192z
		 M79.102,48.863c52.528,0,104.574,0,156.749,0c0-6.507,0-12.717,0-18.984c-52.417,0-104.456,0-156.749,0
		C79.102,36.288,79.102,42.377,79.102,48.863z M58.902,50c8.724,0.006,10.852-2.007,10.886-10.297
		c0.036-8.774-1.914-10.835-10.266-10.856c-9.301-0.023-11.07,1.652-11.078,10.491C48.436,48.014,50.378,49.994,58.902,50z
		 M40.093,39.462c0.003-8.793-1.766-10.606-10.354-10.615c-8.851-0.01-10.77,1.81-10.782,10.221
		C18.945,48.084,20.81,50.002,29.59,50C38.187,49.998,40.09,48.088,40.093,39.462z"/>
	<path fill-rule="evenodd" clip-rule="evenodd" d="M107.933,177.152c-7.512,0-14.641,0.201-21.747-0.119
		c-2.182-0.099-5.415-1.103-6.132-2.641c-0.72-1.544,0.492-4.804,1.895-6.397c13.655-15.502,27.511-30.828,41.35-46.168
		c3.798-4.211,6.046-4.201,9.828,0.031c13.652,15.282,27.32,30.552,40.801,45.986c1.424,1.631,2.896,5.117,2.126,6.313
		c-1.091,1.695-4.211,2.747-6.526,2.866c-6.935,0.357-13.899,0.129-20.268,0.129c-1.711,9.093-2.557,17.761-5.028,25.938
		c-7.255,24.003-24.299,38.313-47.657,45.65c-12.409,3.897-25.181,5.657-38.359,5.039c17.403-6.468,34.145-13.811,42.763-31.767
		C107.713,207.979,108.253,192.896,107.933,177.152z"/>
</g>
</svg>
